<?xml version="1.0" standalone="no"?>
<!DOCTYPE svg PUBLIC "-//W3C//DTD SVG 20010904//EN"
 "http://www.w3.org/TR/2001/REC-SVG-20010904/DTD/svg10.dtd">
<svg version="1.0" xmlns="http://www.w3.org/2000/svg"
 width="16.000000pt" height="16.000000pt" viewBox="0 0 16.000000 16.000000"
 preserveAspectRatio="xMidYMid meet">
<metadata>
Created by potrace 1.11, written by Peter Selinger 2001-2013
</metadata>
<g transform="translate(0.000000,16.000000) scale(0.003556,-0.003556)"
fill="#000000" stroke="none">
<path d="M2124 4220 c-104 -27 -170 -65 -249 -145 -80 -80 -115 -140 -143
-240 -81 -295 88 -595 382 -680 71 -21 199 -23 276 -5 186 43 349 199 400 382
23 85 26 218 6 293 -46 174 -191 328 -361 385 -90 30 -219 34 -311 10z"/>
<path d="M1033 3679 c-59 -11 -96 -32 -136 -79 -59 -70 -73 -176 -32 -257 9
-18 185 -202 391 -409 l374 -377 1 -1031 c0 -567 3 -1044 5 -1060 14 -86 103
-184 188 -207 134 -36 266 20 326 138 l25 48 3 513 3 512 79 0 79 0 3 -512 c3
-506 3 -514 25 -554 12 -22 38 -57 57 -76 112 -112 298 -105 400 14 69 81 66
19 66 1172 l0 1041 374 374 c250 250 381 388 396 417 93 187 -93 389 -297 324
-29 -10 -107 -81 -343 -316 l-306 -304 -454 0 -455 0 -295 296 c-295 297 -328
324 -405 336 -16 3 -49 1 -72 -3z"/>
</g>
</svg>
